<?xml version="1.0" standalone="no"?>
<!DOCTYPE svg PUBLIC "-//W3C//DTD SVG 20010904//EN"
 "http://www.w3.org/TR/2001/REC-SVG-20010904/DTD/svg10.dtd">
<svg version="1.0" xmlns="http://www.w3.org/2000/svg"
 width="500.000000pt" height="500.000000pt" viewBox="0 0 500.000000 500.000000"
 preserveAspectRatio="xMidYMid meet">
<metadata>
Created by potrace 1.14, written by Peter Selinger 2001-2017
</metadata>
<g transform="translate(0.000000,500.000000) scale(0.100000,-0.100000)"
fill="#000000" stroke="none">
<path d="M0 2500 l0 -2500 2500 0 2500 0 0 2500 0 2500 -2500 0 -2500 0 0
-2500z m4288 1605 c3 -258 -3 -393 -38 -975 -23 -371 -43 -685 -46 -698 -4
-22 -7 -22 -149 -22 -85 0 -146 4 -150 10 -3 5 -24 297 -45 647 -33 528 -40
698 -40 984 0 190 3 349 7 353 4 3 108 5 232 4 l226 -3 3 -300z m-3013 -461
c55 -26 115 -88 158 -165 l36 -64 3 100 3 100 194 3 c134 2 198 -1 207 -9 12
-10 14 -179 14 -1048 0 -619 -4 -1082 -10 -1151 -31 -350 -146 -597 -318 -684
-62 -32 -182 -56 -274 -56 -292 0 -458 129 -529 411 -28 113 -40 405 -16 414
14 6 349 -66 393 -85 14 -5 24 -21 29 -47 13 -71 40 -118 78 -136 46 -22 65
-21 105 3 68 41 91 148 92 409 l0 165 -28 -45 c-33 -51 -106 -120 -152 -144
-52 -27 -141 -31 -197 -10 -131 50 -245 230 -307 485 -42 177 -51 274 -51 575
1 386 31 568 127 765 50 103 139 198 208 223 60 22 180 18 235 -9z m1825 11
c201 -71 335 -427 359 -955 23 -482 -41 -856 -184 -1070 -90 -136 -215 -195
-341 -161 -57 15 -129 66 -170 119 l-34 45 0 -444 c0 -244 -4 -450 -8 -457 -7
-9 -58 -12 -223 -10 l-214 3 0 1445 0 1445 194 3 c134 2 198 -1 207 -9 10 -8
14 -38 14 -103 l1 -91 32 60 c41 77 123 158 179 178 56 20 135 21 188 2z
m1168 -1777 l2 -368 -214 0 c-186 0 -215 2 -220 16 -3 9 -6 170 -6 358 0 256
3 345 12 354 9 9 66 12 218 10 l205 -3 3 -367z"/>
<path d="M1226 3016 c-41 -43 -64 -114 -78 -240 -13 -127 -5 -361 17 -441 58
-215 185 -217 250 -5 23 74 32 361 15 468 -16 103 -44 175 -84 217 -44 46 -78
46 -120 1z"/>
<path d="M2838 3035 c-61 -34 -103 -179 -114 -390 -12 -247 23 -440 95 -515
47 -50 73 -51 116 -6 62 66 85 188 84 451 0 254 -27 384 -93 450 -28 28 -49
31 -88 10z"/>
</g>
</svg>
